<svg xmlns="http://www.w3.org/2000/svg" width="192" height="192" viewBox="0 0 192 192">
  <g id="logo" transform="translate(-368 -461)">
    <rect id="Rectangle_52" data-name="Rectangle 52" width="192" height="192" rx="20" transform="translate(368 461)" fill="#faedfc"/>
    <g id="A-logo" transform="translate(375.471 467.723)">
      <g id="layer1" transform="translate(0.66 85.641)">
        <path id="path953" d="M12.818,202.6a12,12,0,1,0,0,23.99,12,12,0,1,0,0-23.99Zm.05,2.637c5.539,0,10.029,4.167,10.029,9.308s-4.49,9.307-10.028,9.307-10.029-4.167-10.029-9.307,4.49-9.307,10.028-9.307Z" transform="translate(-0.66 -202.6)" fill="#483737"/>
      </g>
      <g id="layer2" transform="translate(23.941 90.674)">
        <ellipse id="path953-2" cx="12.158" cy="11.995" rx="12.158" ry="11.995" transform="translate(128.272)"/>
        <path id="path1025" d="M39.289,162.159c.151-.266,4.872,2.548,13.2,6.188a130.962,130.962,0,0,0,34.782,9.913h0a130.387,130.387,0,0,0,16.548,1.182,142.482,142.482,0,0,0,24.7-1.988,159.273,159.273,0,0,0,29.3-7.869c7.064-3.05,11.294-4.733,11.425-4.486h0c.11.256-3.9,2.407-10.866,5.882a135.632,135.632,0,0,1-29.467,8.9,133,133,0,0,1-25.11,2.208A123.614,123.614,0,0,1,86.937,180.8h0a117.753,117.753,0,0,1-35.093-10.961c-8.271-4.108-12.661-7.494-12.556-7.68Z" transform="translate(-39.286 -95.488)"/>
      </g>
      <g id="layer3" transform="translate(0.529 1.277)">
        <path id="path1021" d="M15.875,84.134c.579.027-1.722-14.667,6.409-37.684,3.231-9.158,8.531-20.212,17.362-29.468A51.924,51.924,0,0,1,66.774,1.647h0C78.31-.583,90.69,1.514,102.385,6.578a35.089,35.089,0,0,1,8.708,5.308,31.537,31.537,0,0,1,6.226,7.089q.358.56.693,1.134a42.247,42.247,0,0,1,5.214,16.958,81.22,81.22,0,0,1-.886,21.249h0A153.2,153.2,0,0,1,116.9,80.567a270.131,270.131,0,0,1-16.119,38.9h0c-2.2,4.388-4.363,8.467-6.5,12.284h0c-.65,1.162-1.293,2.29-1.938,3.4h0q-.262.449-.525.893h0l-.347-.379h0l-.035.057-.009.014c21.173,8.161,34,13.469,33.872,13.793S112.145,144.93,90.382,136.1l.012-.02.033-.059h0q-.04-.416-.08-.836h0q.251-.442.5-.891h0c.618-1.108,1.234-2.239,1.86-3.405h0c2.055-3.832,4.14-7.917,6.265-12.312h0a280.83,280.83,0,0,0,15.6-38.74A153.644,153.644,0,0,0,119.8,57.917h0a79.407,79.407,0,0,0,.808-20.571,39.992,39.992,0,0,0-4.877-15.9q-.309-.527-.64-1.039a28.974,28.974,0,0,0-5.7-6.5,32.575,32.575,0,0,0-8.049-4.919c-11.334-4.89-23.177-7-34.1-4.908h0c-10.442,1.959-19.436,7.729-26,14.442C32.61,27.344,27.263,38.1,23.9,47.038,15.587,69.17,16.2,84.149,15.875,84.134Z" transform="translate(-15.875 -0.76)"/>
      </g>
    </g>
  </g>
</svg>
